<?xml version="1.0" encoding="UTF-8"?> <!-- Generator: Adobe Illustrator 23.0.4, SVG Export Plug-In . SVG Version: 6.00 Build 0) --> <svg xmlns="http://www.w3.org/2000/svg" xmlns:xlink="http://www.w3.org/1999/xlink" id="Layer_1" x="0px" y="0px" viewBox="0 0 200 200" style="enable-background:new 0 0 200 200;" xml:space="preserve"> <style type="text/css"> .st0{fill:#1D1D1B;} .st1{fill:#FFFFFF;} </style> <g> <circle class="st0" cx="99.6" cy="100.6" r="90"></circle> <g> <path class="st1" d="M98,123.6c-2.1,0-3.9-0.7-5.4-2.2c-1.4-1.4-2.2-3.2-2.2-5.2l0-27.7c0-2,0.7-3.7,2.1-5.1 c1.5-1.5,3.3-2.2,5.5-2.2h0.1c2.1,0,3.9,0.7,5.3,2.2c1.5,1.5,2.2,3.2,2.2,5.2l0,27.7c0,2-0.7,3.7-2.2,5.1 c-1.5,1.5-3.3,2.2-5.4,2.2H98z"></path> <path class="st1" d="M82.9,66.5c-1.4-1.4-3.1-2.1-5.1-2.1h-0.2c-2,0-3.7,0.7-5.1,2.1c-1.4,1.4-2.1,3.1-2.1,5v11.7 c-2-1.2-4.8-1.8-8.3-1.8c-5.6,0-10.4,2.1-14.4,6.2c-4,4.1-5.9,9.1-5.9,14.9c0,5.8,2,10.7,5.9,14.9c3.9,4.1,8.7,6.2,14.4,6.2 c3.5,0,6.6-0.7,8.7-1.9c0,0,0,0.3,0.7,1c0.6,0.6,1.5,1,2.5,1h7.5c1,0,1.8-0.3,2.6-1c0.7-0.7,1-1.5,1-2.4V71.5 C85,69.6,84.3,67.9,82.9,66.5z M68.4,107.6c-1.5,1.5-3.3,2.2-5.5,2.2c-2.2,0-4-0.8-5.6-2.3c-1.5-1.5-2.2-3.2-2.2-5.3 c0-2.1,0.7-3.8,2.2-5.3c1.5-1.5,3.4-2.3,5.6-2.3c2.2,0,4,0.8,5.5,2.3c1.5,1.4,2.2,3.2,2.2,5.3C70.7,104.3,70,106.1,68.4,107.6z"></path> <path class="st1" d="M113,138.4c1.4,1.4,3.1,2.1,5.1,2.1h0.2c2,0,3.7-0.7,5.1-2.1c1.4-1.4,2.1-3.1,2.1-5v-11.7 c2,1.2,4.8,1.8,8.3,1.8c5.6,0,10.4-2.1,14.4-6.2c4-4.1,5.9-9.1,5.9-14.9c0-5.8-2-10.7-5.9-14.9c-3.9-4.1-8.7-6.2-14.4-6.2 c-3.5,0-6.6,0.7-8.7,1.9c0,0,0-0.3-0.7-1c-0.6-0.6-1.5-1-2.5-1h-7.5c-1,0-1.8,0.3-2.6,1c-0.7,0.7-1,1.5-1,2.4v48.6 C110.9,135.3,111.6,137,113,138.4z M127.4,97.3c1.5-1.5,3.3-2.2,5.5-2.2c2.2,0,4,0.8,5.6,2.3c1.5,1.5,2.2,3.2,2.2,5.3 c0,2.1-0.7,3.8-2.2,5.3c-1.5,1.5-3.4,2.3-5.6,2.3c-2.2,0-4-0.8-5.5-2.3c-1.5-1.4-2.2-3.2-2.2-5.3 C125.2,100.6,125.9,98.8,127.4,97.3z"></path> <g> <path class="st1" d="M105,130.4c-1.8,0.4-4,0.1-5.2-1.5c-0.6-1.3-0.4-2,0-3.1c0-0.1,0-0.2-0.1-0.2c-3.5-0.9-6.7,0.5-8.4,3.6 c-1.7,3.1-0.9,6.7,1.6,9.2c2.5,2.4,6.4,3,9.4,1.2c3.1-1.8,3.9-5.9,2.8-9C105.2,130.5,105.1,130.4,105,130.4z M98.1,135.1 c-3.2-0.1-2.2-4.5,0.5-4.7c1.3-0.1,1.5,1.6,1.6,2.5C100.2,134.3,99.5,135,98.1,135.1z"></path> </g> <path class="st1" d="M99.6,139.8c0,0-1.5,0.8-1.5,0.8c0,0,0.1,0,0.1,0c0.1,0,0.1,0.1,0.2,0.1c0.1,0.1,0.2,0.1,0.2,0.2l1.5,1.2 c0.2-0.1,0.3-0.3,0.4-0.5c0.2-0.5,0.4-1.3,0.9-1.6c0,0,0,0,0,0L99.6,139.8z"></path> <path class="st1" d="M98.7,141.2c0.1,0.4,0.3,0.9,0.8,1c0.1,0,0.3,0,0.4,0c0.1,0,0.1,0,0.2-0.1l-1.5-1.2 C98.7,141,98.7,141.1,98.7,141.2z"></path> <path class="st1" d="M105.5,134.8c0,0-0.1,1.3,0,1.8c0,0.2,0.1,0.4,0,0.6c-0.1,0.1-0.2,0.2-0.3,0.2c-0.1,0-0.2,0-0.3,0 c-0.1,0-0.1-0.1-0.2-0.2c-0.1-0.1-0.2-0.3-0.2-0.5c-0.1-0.4-0.1-0.9,0.1-1.3C105.1,134.2,105.5,134.8,105.5,134.8z"></path> <path class="st1" d="M104.3,140c-0.1,0.1-0.1,0.3-0.1,0.5c-0.1,0.6-0.2,1.3-0.3,1.9c-0.1,0.6-0.3,1.2-0.3,1.8c0,0.2,0,0.4,0.1,0.6 c0.1,0.3,0.4,0.5,0.7,0.6c0.6,0.2,1-0.4,1-1c0-0.5-0.1-1-0.3-1.5c-0.3-0.7-0.4-1.4-0.5-2.2c0-0.2,0-0.3,0-0.5c0-0.1,0-0.4-0.1-0.3 c0,0,0,0-0.1,0.1C104.3,139.9,104.3,139.9,104.3,140z"></path> <g> <path class="st1" d="M92.1,71.1h-1.5v-1h4.2v1h-1.5v4.4h-1.2V71.1z"></path> <path class="st1" d="M96.5,70.1h1.2v2.1h1.9v-2.1h1.2v5.4h-1.2v-2.3h-1.9v2.3h-1.2V70.1z"></path> <path class="st1" d="M103,70.1h3.4v1h-2.2v1.1h1.8v1h-1.8v1.2h2.3v1H103V70.1z"></path> </g> </g> </g> </svg> 